<svg id="Calque_1" data-name="Calque 1" xmlns="http://www.w3.org/2000/svg" viewBox="0 0 1920 1080">
  <path d="M-461.80768,767.21484c103.8237-13.14637,224.0811-23.25386,328.19225-35.42852,203.63285-23.6051,407.80307-52.92619,602.60309-117.1823,12.39162-3.99785,32.35151-11.04095,44.84365-15.682,2.85028-.97709,8.18986-2.97246,10.9502-4.10431,10.20467-4.07455,22.23994-8.50323,32.16755-12.856,6.58055-2.86651,14.663-6.00107,20.92711-8.92073,13.55731-6.13611,27.07541-12.38028,40.34257-19.01932,2.56482-1.20135,7.346-3.62767,9.80056-4.98608,90.77722-45.97817,161.0167-106.57678,244.939-168.99291,75.41108-56.66406,166.653-109.7231,258.13119-142.08793,129.91618-47.19643,268.85857-65.50364,405.79188-65.916,370.81383.34165,763.88861,126.90089,1090.13912,297.798,74.1486,38.9692,147.12022,81.36249,216.5098,128.33924l11.62522,8.01582,5.80615,4.01117,5.76855,4.11615c-3.69384.01111-10.52634-.063-14.16963-.15244-55.45466-1.04543-111.75774-4.50429-167.03377-7.95688-295.21135-19.025-591.52185-53.36049-887.04847-57.44413-82.3814-.96156-164.56918.78386-246.47,7.75877-90.595,7.9386-181.25979,22.27739-266.77357,51.00758-8.2163,3.08917-18.241,6.329-26.35139,9.659-91.8489,34.54265-163.94419,90.42438-248.84409,146.12938-74.7535,49.61011-161.36469,95.40082-247.75644,125.427-8.48405,2.86669-21.9466,7.31556-30.45663,10.10429-12.61716,4.10425-25.42036,7.58194-38.12618,11.30543-12.17138,3.426-25.98355,6.66973-38.09,9.80081C373.97931,985.525,73.41376,955.77-200.783,871.31979c-89.46016-28.0205-177.45028-61.48545-261.02466-104.105Z" style="fill: #f1ba85"/>
  <path d="M2770.94214,828.79187c-77.97777,45.9721-161.26924,82.42913-246.54529,112.76451-277.52231,97.27176-588.03917,119.418-870.46428,25.83843-87.19043-28.886-171.35178-70.62305-247.888-121.85086-97.93034-64.04325-183.60146-147.45282-273.051-216.22208C1003.60622,527.9568,854.30409,488.66279,692.28672,478.083c-132.71722-8.89177-264.53717.09919-397.98736,15.15852-204.46183,23.73229-408.42375,62.97291-611.5726,99.01115-60.75908,10.50473-126.42371,22.403-187.617,30.62224l-7.13585.87091c13.95029-12.552,28.95168-25.21423,43.34106-37.15426,36.29962-30.06025,74.25792-58.83682,112.70229-86.133,19.01391-13.49665,38.76455-27.43078,58.26872-40.247,19.63467-12.71174,39.53974-26.336,59.46508-38.50375,23.91126-14.81055,48.45761-29.89322,72.94512-43.84988C51.173,253.3577,285.42248,158.9951,533.8334,119.56529c204.1654-31.6377,417.84494-22.64147,611.30235,56.98153,121.38741,48.26337,232.85709,130.89831,325.28777,218.677,74.1307,68.91134,138.7633,135.89843,220.10219,192.12306,49.05381,34.25239,102.76019,63.45519,157.82749,87.677,3.50483,1.6911,7.19453,3.11553,10.83113,4.62866l10.94238,4.5274c7.30908,3.031,14.53137,6.27283,22.04651,9.01508l11.18786,4.31372,5.5962,2.192,2.80322,1.091c8.473,3.06459,17.05959,6.09591,25.55437,9.24357,177.96405,62.2221,366.99364,88.81324,555.75839,103.07392,91.61756,7.13978,185.791,10.17008,277.86888,15.68269Z" style="fill: #c15a2e"/>
</svg>
